<svg width="200" height="77" viewBox="0 0 200 77" fill="none" xmlns="http://www.w3.org/2000/svg">
<path d="M85.64 60C84.88 60 84.32 59.82 83.96 59.46C83.6 59.06 83.42 58.44 83.42 57.6V20.4C83.42 19.56 83.6 18.96 83.96 18.6C84.32 18.2 84.88 18 85.64 18H97.04C102.24 18 106.06 19.74 108.5 23.22C110.98 26.7 112.22 31.96 112.22 39C112.22 46.04 110.98 51.3 108.5 54.78C106.06 58.26 102.24 60 97.04 60H85.64ZM96.74 52.14C98.86 52.14 100.38 51.16 101.3 49.2C102.22 47.2 102.68 43.8 102.68 39C102.68 34.2 102.22 30.82 101.3 28.86C100.38 26.86 98.86 25.86 96.74 25.86H92.9V52.14H96.74ZM120.212 60C119.452 60 118.892 59.82 118.532 59.46C118.172 59.06 117.992 58.44 117.992 57.6V20.4C117.992 19.56 118.172 18.96 118.532 18.6C118.892 18.2 119.452 18 120.212 18H137.912C138.512 18 138.952 18.24 139.232 18.72C139.512 19.2 139.652 19.96 139.652 21V22.86C139.652 23.9 139.512 24.66 139.232 25.14C138.952 25.62 138.512 25.86 137.912 25.86H127.352V34.56H136.712C137.312 34.56 137.752 34.8 138.032 35.28C138.312 35.76 138.452 36.52 138.452 37.56V39.42C138.452 40.46 138.312 41.22 138.032 41.7C137.752 42.18 137.312 42.42 136.712 42.42H127.352V52.14H137.972C138.572 52.14 138.992 52.38 139.232 52.86C139.512 53.34 139.652 54.1 139.652 55.14V57C139.652 58.04 139.512 58.8 139.232 59.28C138.992 59.76 138.572 60 137.972 60H120.212ZM154.834 60.12C152.914 60.12 151.854 59.7 151.654 58.86L142.534 20.28C142.374 19.72 142.294 19.36 142.294 19.2C142.294 18.32 143.454 17.88 145.774 17.88H148.054C150.054 17.88 151.154 18.46 151.354 19.62L156.094 44.34C156.294 45.22 156.634 47.6 157.114 51.48H157.354C157.634 49.12 157.974 46.74 158.374 44.34L163.174 19.62C163.374 18.46 164.474 17.88 166.474 17.88H168.694C170.974 17.88 172.114 18.32 172.114 19.2C172.114 19.48 172.054 19.84 171.934 20.28L162.814 58.86C162.614 59.7 161.554 60.12 159.634 60.12H154.834ZM173.182 68.28C172.582 68.28 172.142 68.04 171.862 67.56C171.582 67.08 171.442 66.32 171.442 65.28V64.86C171.442 63.82 171.582 63.06 171.862 62.58C172.142 62.1 172.582 61.86 173.182 61.86H197.302C197.902 61.86 198.342 62.1 198.622 62.58C198.902 63.06 199.042 63.82 199.042 64.86V65.28C199.042 66.32 198.902 67.08 198.622 67.56C198.342 68.04 197.902 68.28 197.302 68.28H173.182Z" fill="url(#paint0_linear_11_63)"/>
<path d="M23.4 60L12.66 44.88V60H5.04V18.18H16.68C26.6 18.18 31.56 22.62 31.56 31.5C31.56 33.48 31.24 35.43 30.6 37.35C29.96 39.25 28.91 40.94 27.45 42.42C26.01 43.9 24.16 44.92 21.9 45.48L32.7 60H23.4ZM15.84 41.1C17.54 41.1 18.99 40.7 20.19 39.9C21.41 39.08 22.33 38 22.95 36.66C23.57 35.3 23.88 33.82 23.88 32.22C23.88 29.46 23.24 27.43 21.96 26.13C20.7 24.83 18.6 24.18 15.66 24.18H12.66V41.1H15.84ZM74.6489 17.46V60H67.2089V42.06L67.4789 34.98L65.3489 38.22L57.1289 47.88L48.9089 38.22L46.7789 34.98L47.1089 42.06V60H39.6689V17.46H40.2689L57.1889 37.41L73.9889 17.46H74.6489Z" fill="#FAFAFA"/>
<defs>
<linearGradient id="paint0_linear_11_63" x1="80" y1="4" x2="166" y2="54" gradientUnits="userSpaceOnUse">
<stop stop-color="#4AFFAF"/>
<stop offset="1" stop-color="#4AC7FA"/>
</linearGradient>
</defs>
</svg>
